<svg width="100%" height="100%" viewBox="0 0 752 471" version="1.1" xmlns="http://www.w3.org/2000/svg" xmlns:xlink="http://www.w3.org/1999/xlink" xml:space="preserve" xmlns:serif="http://www.serif.com/" style="fill-rule:evenodd;clip-rule:evenodd;stroke-linejoin:round;stroke-miterlimit:2;"><g><path d="M751,40c0,-22.077 -17.923,-40 -40,-40l-670,0c-22.077,0 -40,17.923 -40,40l0,391c0,22.077 17.923,40 40,40l670,0c22.077,0 40,-17.923 40,-40l0,-391Z" style="fill:rgb(37,87,214);"></path><path d="M1,221.185l36.027,0l8.123,-19.51l18.185,0l8.101,19.51l70.88,0l0,-14.915l6.327,14.98l36.796,0l6.327,-15.202l0,15.138l176.151,0l-0.082,-32.026l3.408,0c2.386,0.083 3.083,0.302 3.083,4.226l0,27.8l91.106,0l0,-7.455c7.349,3.92 18.779,7.455 33.819,7.455l38.328,0l8.203,-19.51l18.185,0l8.021,19.51l73.86,0l0,-18.532l11.186,18.532l59.187,0l0,-122.508l-58.576,0l0,14.468l-8.202,-14.468l-60.105,0l0,14.468l-7.532,-14.468l-81.188,0c-13.59,0 -25.536,1.889 -35.186,7.153l0,-7.153l-56.026,0l0,7.153c-6.14,-5.426 -14.508,-7.153 -23.812,-7.153l-204.686,0l-13.734,31.641l-14.104,-31.641l-64.47,0l0,14.468l-7.083,-14.468l-54.983,0l-25.534,58.246l0,64.261Zm227.399,-17.67l-21.614,0l-0.08,-68.794l-30.573,68.793l-18.512,0l-30.652,-68.854l0,68.854l-42.884,0l-8.101,-19.592l-43.9,0l-8.183,19.592l-22.9,0l37.756,-87.837l31.326,0l35.859,83.164l0,-83.164l34.412,0l27.593,59.587l25.347,-59.587l35.104,0l0,87.837l0.003,0l-0.001,0.001Zm-159.622,-37.823l-14.43,-35.017l-14.35,35.017l28.78,0Zm245.642,37.821l-70.433,0l0,-87.837l70.433,0l0,18.291l-49.348,0l0,15.833l48.165,0l0,18.005l-48.166,0l0,17.542l49.348,0l0,18.166l0.001,0Zm99.256,-64.18c0,14.004 -9.386,21.24 -14.856,23.412c4.613,1.748 8.553,4.838 10.43,7.397c2.976,4.369 3.49,8.271 3.49,16.116l0,17.255l-21.266,0l-0.08,-11.077c0,-5.285 0.508,-12.886 -3.328,-17.112c-3.081,-3.09 -7.777,-3.76 -15.368,-3.76l-22.633,0l0,31.95l-21.084,0l0,-87.838l48.495,0c10.775,0 18.714,0.283 25.53,4.207c6.67,3.924 10.67,9.652 10.67,19.45Zm-26.652,13.042c-2.898,1.752 -6.324,1.81 -10.43,1.81l-25.613,0l0,-19.51l25.962,0c3.674,0 7.508,0.164 9.998,1.584c2.735,1.28 4.427,4.003 4.427,7.765c0,3.84 -1.61,6.929 -4.344,8.351Zm60.466,51.138l-21.513,0l0,-87.837l21.513,0l0,87.837Zm249.74,0l-29.879,0l-39.964,-65.927l0,65.927l-42.94,0l-8.204,-19.592l-43.799,0l-7.96,19.592l-24.673,0c-10.248,0 -23.224,-2.257 -30.572,-9.715c-7.41,-7.458 -11.265,-17.56 -11.265,-33.533c0,-13.027 2.304,-24.936 11.366,-34.347c6.816,-7.01 17.49,-10.242 32.02,-10.242l20.412,0l0,18.821l-19.984,0c-7.694,0 -12.039,1.14 -16.224,5.203c-3.594,3.699 -6.06,10.69 -6.06,19.897c0,9.41 1.878,16.196 5.797,20.628c3.245,3.476 9.144,4.53 14.694,4.53l9.469,0l29.716,-69.076l31.592,0l35.696,83.081l0,-83.08l32.103,0l37.062,61.174l0,-61.174l21.596,0l0,87.834l0.001,-0.001Zm-128.159,-37.82l-14.591,-35.017l-14.51,35.017l29.101,0Zm181.885,178.074c-5.121,7.458 -15.101,11.239 -28.611,11.239l-40.718,0l0,-18.84l40.553,0c4.022,0 6.837,-0.527 8.532,-2.175c1.602,-1.472 2.508,-3.555 2.493,-5.73c0,-2.56 -1.024,-4.592 -2.575,-5.81c-1.53,-1.341 -3.757,-1.95 -7.429,-1.95c-19.797,-0.67 -44.495,0.609 -44.495,-27.194c0,-12.743 8.125,-26.157 30.25,-26.157l41.998,0l0,-17.48l-39.02,0c-11.776,0 -20.33,2.808 -26.388,7.174l0,-7.175l-57.715,0c-9.23,0 -20.063,2.279 -25.187,7.175l0,-7.175l-103.065,0l0,7.175c-8.203,-5.892 -22.043,-7.175 -28.431,-7.175l-67.983,0l0,7.175c-6.49,-6.258 -20.92,-7.175 -29.716,-7.175l-76.085,0l-17.41,18.763l-16.307,-18.763l-113.656,0l0,122.592l111.516,0l17.94,-19.06l16.9,19.06l68.739,0.061l0,-28.838l6.757,0c9.12,0.14 19.878,-0.226 29.368,-4.31l0,33.085l56.697,0l0,-31.952l2.735,0c3.49,0 3.834,0.143 3.834,3.616l0,28.333l172.234,0c10.935,0 22.365,-2.787 28.695,-7.845l0,7.845l54.632,0c11.369,0 22.471,-1.587 30.918,-5.651l0,-22.838Zm-341.503,-47.154c0,24.406 -18.286,29.445 -36.716,29.445l-26.306,0l0,29.469l-40.98,0l-25.962,-29.085l-26.981,29.085l-83.517,0l0,-87.859l84.8,0l25.941,28.799l26.819,-28.799l67.371,0c16.732,0 35.532,4.613 35.532,28.945l-0.001,0Zm-167.625,40.434l-51.839,0l0,-17.481l46.289,0l0,-17.926l-46.289,0l0,-15.973l52.86,0l23.062,25.604l-24.083,25.776Zm83.526,10.06l-32.37,-35.788l32.37,-34.651l0,70.439Zm47.875,-39.066l-27.248,0l0,-22.374l27.492,0c7.612,0 12.896,3.09 12.896,10.773c0,7.598 -5.04,11.601 -13.14,11.601Zm142.741,-40.373l70.37,0l0,18.17l-49.372,0l0,15.973l48.167,0l0,17.925l-48.167,0l0,17.481l49.372,0.08l0,18.23l-70.37,0l0,-87.859Zm-27.053,47.03c4.693,1.724 8.53,4.816 10.329,7.375c2.977,4.29 3.408,8.293 3.493,16.037l0,17.417l-21.168,0l0,-10.992c0,-5.286 0.511,-13.112 -3.408,-17.198c-3.08,-3.147 -7.777,-3.9 -15.468,-3.9l-22.533,0l0,32.09l-21.186,0l0,-87.859l48.678,0c10.674,0 18.448,0.47 25.369,4.146c6.654,4.004 10.839,9.488 10.839,19.51c-0.003,14.024 -9.395,21.18 -14.945,23.373l0,0.001Zm-11.916,-11.108c-2.82,1.667 -6.308,1.81 -10.41,1.81l-25.614,0l0,-19.733l25.962,0c3.754,0 7.51,0.08 10.062,1.587c2.732,1.423 4.366,4.144 4.366,7.903c0,3.76 -1.634,6.788 -4.366,8.433Zm190.336,5.597c4.106,4.23 6.306,9.572 6.306,18.614c0,18.9 -11.858,27.723 -33.122,27.723l-41.065,0l0,-18.84l40.9,0c4,0 6.836,-0.527 8.613,-2.175c1.45,-1.359 2.49,-3.333 2.49,-5.73c0,-2.56 -1.125,-4.592 -2.573,-5.81c-1.612,-1.34 -3.836,-1.95 -7.508,-1.95c-19.717,-0.67 -44.41,0.61 -44.41,-27.193c0,-12.744 8.04,-26.158 30.144,-26.158l42.269,0l0,18.7l-38.677,0c-3.834,0 -6.327,0.143 -8.447,1.587c-2.31,1.422 -3.166,3.534 -3.166,6.32c0,3.315 1.96,5.57 4.613,6.545c2.224,0.77 4.613,0.996 8.205,0.996l11.35,0.305c11.446,0.278 19.303,2.249 24.078,7.066Zm83.664,-23.52l-38.427,0c-3.836,0 -6.385,0.143 -8.532,1.587c-2.224,1.423 -3.081,3.534 -3.081,6.322c0,3.314 1.878,5.569 4.61,6.544c2.225,0.77 4.614,0.996 8.126,0.996l11.427,0.304c11.531,0.284 19.228,2.258 23.921,7.072c0.855,0.67 1.368,1.422 1.956,2.175l0,-25Z" style="fill:white;"></path></g></svg>