<svg width="100%" height="100%" viewBox="0 0 780 501" version="1.1" xmlns="http://www.w3.org/2000/svg" xmlns:xlink="http://www.w3.org/1999/xlink" xml:space="preserve" xmlns:serif="http://www.serif.com/" style="fill-rule:evenodd;clip-rule:evenodd;stroke-linejoin:round;stroke-miterlimit:2;"><g><path d="M54.992,0c-30.365,0 -54.992,24.63 -54.992,55.004l0,390.992c0,30.38 24.619,55.004 54.992,55.004l670.016,0c30.365,0 54.992,-24.63 54.992,-55.004l0,-390.992c0,-30.38 -24.619,-55.004 -54.992,-55.004l-670.016,0Z" style="fill:rgb(77,77,77);"></path><path d="M415.13,161.213c30.941,0 56.022,23.58 56.022,52.709l0,0.033c0,29.13 -25.081,52.742 -56.021,52.742c-30.94,0 -56.022,-23.613 -56.022,-52.742l0,-0.033c0,-29.13 25.082,-52.71 56.022,-52.71l-0.001,0.001Zm-87.978,0.68c8.837,0 16.248,1.784 25.268,6.09l0,22.751c-8.544,-7.863 -15.955,-11.154 -25.756,-11.154c-19.264,0 -34.414,15.015 -34.414,34.05c0,20.075 14.681,34.196 35.37,34.196c9.312,0 16.586,-3.12 24.8,-10.857l0,22.763c-9.341,4.14 -16.911,5.776 -25.756,5.776c-31.278,0 -55.582,-22.596 -55.582,-51.737c0,-28.826 24.951,-51.878 56.07,-51.878Zm-97.113,0.627c11.546,0 22.11,3.72 30.943,10.994l-10.748,13.248c-5.35,-5.646 -10.41,-8.028 -16.564,-8.028c-8.853,0 -15.3,4.745 -15.3,10.989c0,5.354 3.619,8.188 15.944,12.482c23.365,8.044 30.29,15.176 30.29,30.926c0,19.193 -14.976,32.553 -36.32,32.553c-15.63,0 -26.994,-5.795 -36.458,-18.872l13.268,-12.03c4.73,8.61 12.622,13.222 22.42,13.222c9.163,0 15.947,-5.952 15.947,-13.984c0,-4.164 -2.055,-7.734 -6.158,-10.258c-2.066,-1.195 -6.158,-2.977 -14.2,-5.647c-19.291,-6.538 -25.91,-13.527 -25.91,-27.185c0,-16.225 14.214,-28.41 32.846,-28.41Zm234.723,1.728l22.437,0l28.084,66.592l28.446,-66.592l22.267,0l-45.494,101.686l-11.053,0l-44.687,-101.686Zm-397.348,0.152l30.15,0c33.312,0 56.534,20.382 56.534,49.641c0,14.59 -7.104,28.696 -19.118,38.057c-10.108,7.901 -21.626,11.445 -37.574,11.445l-29.992,0l0,-99.143Zm96.135,0l20.54,0l0,99.143l-20.54,0l0,-99.143Zm411.734,0l58.252,0l0,16.8l-37.725,0l0,22.005l36.336,0l0,16.791l-36.336,0l0,26.762l37.726,0l0,16.785l-58.252,0l0,-99.143l-0.001,0Zm71.858,0l30.455,0c23.69,0 37.265,10.71 37.265,29.272c0,15.18 -8.514,25.14 -23.986,28.105l33.148,41.766l-25.26,0l-28.429,-39.828l-2.678,0l0,39.828l-20.515,0l0,-99.143Zm20.515,15.616l0,30.025l6.002,0c13.117,0 20.069,-5.362 20.069,-15.328c0,-9.648 -6.954,-14.697 -19.745,-14.697l-6.326,0Zm-579.716,1.183l0,65.559l5.512,0c13.273,0 21.656,-2.394 28.11,-7.88c7.103,-5.955 11.376,-15.465 11.376,-24.98c0,-9.499 -4.273,-18.725 -11.376,-24.681c-6.785,-5.78 -14.837,-8.018 -28.11,-8.018l-5.512,0Z" style="fill:white;"></path><path d="M779.982,288.361c-26.05,18.33 -221.077,149.34 -558.754,212.623l503.762,0c30.365,0 54.992,-24.63 54.992,-55.004l0,-157.619Z" style="fill:rgb(244,114,22);"></path></g></svg>