<svg width="100%" height="100%" viewBox="0 0 750 471" version="1.1" xmlns="http://www.w3.org/2000/svg" xmlns:xlink="http://www.w3.org/1999/xlink" xml:space="preserve" xmlns:serif="http://www.serif.com/" style="fill-rule:evenodd;clip-rule:evenodd;stroke-linejoin:round;stroke-miterlimit:2;"><g><path d="M750,40c0,-22.077 -17.923,-40 -40,-40l-670,0c-22.077,0 -40,17.923 -40,40l0,391c0,22.077 17.923,40 40,40l670,0c22.077,0 40,-17.923 40,-40l0,-391Z" style="fill:rgb(244,244,244);"></path><path d="M618.579,422.143c-1.213,0.03 -2.213,0.432 -2.998,1.207c-0.785,0.776 -1.192,1.746 -1.22,2.911c0.028,1.157 0.435,2.125 1.22,2.904c0.785,0.78 1.785,1.184 2.998,1.215c1.185,-0.03 2.171,-0.436 2.96,-1.215c0.787,-0.78 1.196,-1.747 1.226,-2.904c-0.03,-1.165 -0.437,-2.135 -1.223,-2.91c-0.786,-0.776 -1.774,-1.179 -2.963,-1.208Zm0,7.329c-0.925,-0.023 -1.687,-0.336 -2.287,-0.94c-0.6,-0.602 -0.91,-1.36 -0.932,-2.27c0.021,-0.916 0.332,-1.672 0.932,-2.27c0.6,-0.599 1.362,-0.909 2.287,-0.93c0.904,0.021 1.655,0.331 2.25,0.93c0.596,0.598 0.905,1.354 0.927,2.27c-0.022,0.91 -0.33,1.668 -0.926,2.27c-0.596,0.604 -1.347,0.917 -2.251,0.94Zm0.242,-5.139l-1.766,0l0,3.826l0.817,0l0,-1.433l0.374,0l1.16,1.433l0.978,0l-1.25,-1.443c0.39,-0.05 0.69,-0.176 0.901,-0.38c0.21,-0.204 0.317,-0.465 0.32,-0.781c-0.004,-0.378 -0.137,-0.675 -0.4,-0.891c-0.264,-0.216 -0.642,-0.326 -1.134,-0.33l0,-0.001Zm-0.01,0.717c0.219,0 0.39,0.043 0.515,0.127c0.124,0.084 0.197,0.228 0.19,0.378c0.007,0.153 -0.065,0.298 -0.19,0.386c-0.124,0.086 -0.296,0.129 -0.515,0.129l-0.939,0l0,-1.02l0.939,0Zm-458.605,2.703l-8.755,0l0,-40.883l8.584,0l0,4.982c0,0 7.539,-6.089 12.017,-6.013c8.706,0.148 13.905,7.559 13.905,7.559c0,0 4.217,-7.559 13.733,-7.559c14.073,0 16.137,12.884 16.137,12.884l0,28.857l-8.412,0l0,-25.422c0,0 0.03,-7.73 -9.098,-7.73c-9.44,0 -10.3,7.73 -10.3,7.73l0,25.423l-8.755,0l0,-25.595c0,0 -0.841,-8.073 -8.756,-8.073c-10.278,0 -10.471,8.245 -10.471,8.245l0.171,25.595Zm266.254,-41.92c-4.478,-0.075 -12.016,6.013 -12.016,6.013l0,-4.971l-8.593,0l0,40.874l8.76,0l-0.167,-25.593c0,0 0.193,-8.228 10.472,-8.228c1.909,0 3.391,0.463 4.565,1.175l0,-0.033l2.853,-7.96c-1.722,-0.725 -3.68,-1.239 -5.874,-1.276l0,-0.001Zm123.33,0c-4.477,-0.075 -12.015,6.013 -12.015,6.013l0,-4.971l-8.593,0l0,40.874l8.76,0l-0.167,-25.593c0,0 0.193,-8.228 10.472,-8.228c1.909,0 3.391,0.463 4.565,1.175l0,-0.033l2.853,-7.96c-1.722,-0.725 -3.68,-1.239 -5.874,-1.276l-0.001,-0.001Zm-305.653,-0.167c-13.103,0 -20.037,11.784 -20.072,21.629c-0.036,10.091 7.894,21.73 20.44,21.73c7.32,0 13.334,-5.407 13.334,-5.407l-0.016,4.164l8.618,0l0,-40.922l-8.648,0l0,5.155c0,0 -5.647,-6.348 -13.656,-6.348l0,-0.001Zm1.678,8.33c7.04,0 12.754,6.126 12.754,13.668c0,7.543 -5.715,13.636 -12.754,13.636c-7.04,0 -12.721,-6.093 -12.721,-13.636c0,-7.542 5.681,-13.669 12.72,-13.669l0.001,0.001Zm249.646,-8.33c-13.103,0 -20.037,11.784 -20.072,21.629c-0.036,10.091 7.894,21.73 20.44,21.73c7.32,0 13.334,-5.407 13.334,-5.407l-0.016,4.164l8.618,0l0,-40.922l-8.648,0l0,5.155c0,0 -5.647,-6.348 -13.656,-6.348l0,-0.001Zm1.678,8.33c7.04,0 12.754,6.126 12.754,13.668c0,7.543 -5.715,13.636 -12.754,13.636c-7.04,0 -12.721,-6.093 -12.721,-13.636c0,-7.542 5.681,-13.669 12.72,-13.669l0.001,0.001Zm81.066,-8.33c-13.102,0 -20.036,11.784 -20.071,21.629c-0.036,10.091 7.893,21.73 20.44,21.73c7.32,0 13.334,-5.407 13.334,-5.407l-0.016,4.164l8.618,0l0,-57.078l-8.648,0l0,21.31c0,0 -5.648,-6.348 -13.657,-6.348Zm1.678,8.33c7.04,0 12.755,6.126 12.755,13.668c0,7.543 -5.715,13.636 -12.755,13.636c-7.04,0 -12.72,-6.093 -12.72,-13.636c0,-7.542 5.68,-13.669 12.72,-13.669l0,0.001Zm-287.148,35.13c-8.926,0 -17.167,-5.497 -17.167,-5.497l3.777,-5.84c0,0 7.797,3.607 13.39,3.607c3.634,0 9.712,-1.174 9.785,-4.81c0.078,-3.842 -10.214,-4.981 -10.214,-4.981c0,0 -15.364,-0.21 -15.364,-12.883c0,-7.97 7.673,-13.055 17.51,-13.055c5.684,0 16.308,4.981 16.308,4.981l-4.291,6.7c0,0 -8.204,-3.28 -12.532,-3.436c-3.655,-0.132 -8.069,1.62 -8.069,4.81c0,8.668 25.58,-0.676 25.58,16.834c0,11.487 -10.418,13.57 -18.713,13.57Zm32.93,-54.108l0,11.892l-7.619,0l0,8.597l7.62,0l0,20.555c0,0 -0.675,13.904 14.264,13.904c4.13,0 12.218,-3.056 12.218,-3.056l-3.457,-8.934c0,0 -3.217,2.745 -6.848,2.653c-6.904,-0.174 -6.713,-4.6 -6.713,-4.6l0,-20.524l14.233,0l0,-8.595l-14.232,0l0,-11.891l-9.465,0l-0.001,-0.001Zm51.858,11.15c-14.05,0 -21.07,11.58 -21.012,21.63c0.06,10.335 6.392,21.965 21.85,21.965c6.617,0 15.91,-5.81 15.91,-5.81l-3.994,-6.953c0,0 -6.341,4.5 -11.915,4.5c-11.16,0 -11.882,-10.915 -11.882,-10.915l29.872,0c0,0 2.229,-24.416 -18.83,-24.416l0.001,-0.001Zm-1.276,8.028c0.331,-0.02 0.687,0 1.04,0c10.514,0 10.44,9.94 10.44,9.94l-21.247,0c0,0 -0.503,-9.356 9.767,-9.94Zm90.132,22.699l4.006,8.017c0,0 -6.349,4.13 -13.474,4.13c-14.751,0 -22.943,-11.11 -22.943,-21.621c0,-16.52 13.036,-21.378 21.85,-21.378c8.001,0 14.931,4.616 14.931,4.616l-4.491,8.016c0,0 -2.723,-4.25 -10.682,-4.25c-7.946,0 -12.14,6.854 -12.14,13.36c0,7.291 4.881,13.483 12.261,13.483c5.79,0 10.682,-4.373 10.682,-4.373Z"></path><path d="M624.508,278.631l0,-5.52l-1.44,0l-1.658,3.796l-1.657,-3.796l-1.44,0l0,5.52l1.017,0l0,-4.164l1.553,3.59l1.055,0l1.553,-3.6l0,4.174l1.017,0Zm-9.123,0l0,-4.578l1.845,0l0,-0.933l-4.698,0l0,0.933l1.845,0l0,4.578l1.008,0Zm9.412,-82.071c0,85.425 -69.077,154.676 -154.288,154.676c-85.21,0 -154.288,-69.25 -154.288,-154.676c0,-85.426 69.077,-154.677 154.289,-154.677c85.21,0 154.288,69.251 154.288,154.677l-0.001,0Z" style="fill:rgb(247,159,26);"></path><path d="M434.46,196.56c0,85.425 -69.078,154.676 -154.288,154.676c-85.212,0 -154.288,-69.25 -154.288,-154.676c0,-85.426 69.076,-154.677 154.288,-154.677c85.21,0 154.287,69.251 154.287,154.677l0.001,0Z" style="fill:rgb(234,0,27);"></path><path d="M375.34,74.797c-35.999,28.317 -59.107,72.318 -59.107,121.748c0,49.43 23.108,93.466 59.108,121.782c35.999,-28.316 59.107,-72.352 59.107,-121.782c0,-49.43 -23.108,-93.431 -59.107,-121.748l-0.001,0Z" style="fill:rgb(255,95,1);"></path></g></svg>