<svg width="100%" height="100%" viewBox="0 0 750 471" version="1.1" xmlns="http://www.w3.org/2000/svg" xmlns:xlink="http://www.w3.org/1999/xlink" xml:space="preserve" xmlns:serif="http://www.serif.com/" style="fill-rule:evenodd;clip-rule:evenodd;stroke-linejoin:round;stroke-miterlimit:2;"><g><path d="M750,40c0,-22.077 -17.923,-40 -40,-40l-670,0c-22.077,0 -40,17.923 -40,40l0,391c0,22.077 17.923,40 40,40l670,0c22.077,0 40,-17.923 40,-40l0,-391Z" style="fill:rgb(14,69,149);"></path><path d="M278.197,334.228l33.361,-195.763l53.36,0l-33.385,195.763l-53.336,0Zm246.11,-191.54c-10.572,-3.966 -27.136,-8.222 -47.822,-8.222c-52.725,0 -89.865,26.55 -90.18,64.603c-0.298,28.13 26.513,43.822 46.753,53.186c20.77,9.594 27.752,15.714 27.654,24.283c-0.132,13.121 -16.587,19.116 -31.923,19.116c-21.357,0 -32.703,-2.966 -50.226,-10.276l-6.876,-3.111l-7.49,43.824c12.464,5.464 35.51,10.198 59.438,10.443c56.09,0 92.501,-26.246 92.916,-66.882c0.2,-22.268 -14.016,-39.216 -44.8,-53.188c-18.65,-9.055 -30.072,-15.099 -29.951,-24.268c0,-8.137 9.667,-16.839 30.556,-16.839c17.45,-0.27 30.089,3.535 39.937,7.5l4.781,2.26l7.234,-42.43m137.307,-4.222l-41.231,0c-12.774,0 -22.332,3.487 -27.942,16.234l-79.245,179.404l56.032,0c0,0 9.161,-24.123 11.233,-29.418c6.124,0 60.554,0.084 68.337,0.084c1.596,6.853 6.491,29.334 6.491,29.334l49.513,0l-43.188,-195.638Zm-65.418,126.407c4.413,-11.279 21.26,-54.723 21.26,-54.723c-0.316,0.522 4.38,-11.334 7.075,-18.684l3.606,16.879c0,0 10.217,46.728 12.352,56.528l-44.293,0Zm-363.293,-126.406l-52.24,133.496l-5.567,-27.13c-9.725,-31.273 -40.025,-65.155 -73.898,-82.118l47.766,171.203l56.456,-0.065l84.004,-195.386l-56.521,0Z" style="fill:white;"></path><path d="M131.92,138.465l-86.041,0l-0.681,4.073c66.938,16.204 111.231,55.363 129.618,102.414l-18.71,-89.96c-3.23,-12.395 -12.597,-16.094 -24.186,-16.526" style="fill:rgb(242,174,20);"></path></g></svg>
